<svg xmlns="http://www.w3.org/2000/svg" viewBox="0 0 256 256">
  <defs>
    <linearGradient id="bg" x1="0" y1="0" x2="1" y2="1">
      <stop offset="0%" stop-color="#1f2937"/>
      <stop offset="100%" stop-color="#111827"/>
    </linearGradient>
    <linearGradient id="docGrad" x1="0" y1="0" x2="0" y2="1">
      <stop offset="0%" stop-color="#ffffff"/>
      <stop offset="100%" stop-color="#e5e7eb"/>
    </linearGradient>
    <linearGradient id="sheetGrad" x1="0" y1="0" x2="0" y2="1">
      <stop offset="0%" stop-color="#34d399"/>
      <stop offset="100%" stop-color="#059669"/>
    </linearGradient>
    <linearGradient id="linkGrad" x1="0" y1="0" x2="1" y2="1">
      <stop offset="0%" stop-color="#60a5fa"/>
      <stop offset="100%" stop-color="#2563eb"/>
    </linearGradient>
  </defs>
  <rect x="20" y="20" width="216" height="216" rx="52" fill="url(#bg)"/>
  <g transform="translate(18,10)">
    <path d="M64 52 H140 L172 84 V172 A16 16 0 0 1 156 188 H64 A16 16 0 0 1 48 172 V68 A16 16 0 0 1 64 52 Z" fill="url(#docGrad)"/>
    <path d="M140 52 V84 H172" fill="#d1d5db"/>
    <path d="M140 52 L172 84 H140 Z" fill="#d1d5db"/>
    <rect x="72" y="104" width="76" height="10" rx="5" fill="#93c5fd"/>
    <rect x="72" y="124" width="62" height="10" rx="5" fill="#93c5fd"/>
    <rect x="72" y="144" width="52" height="10" rx="5" fill="#93c5fd"/>
  </g>
  <g>
    <path d="M156 84 H192 V120" fill="none" stroke="url(#linkGrad)" stroke-width="12" stroke-linecap="round" stroke-linejoin="round"/>
    <path d="M190 86 L138 138" fill="none" stroke="url(#linkGrad)" stroke-width="12" stroke-linecap="round"/>
  </g>
  <path d="M50 82 C64 54, 96 42, 136 42" fill="none" stroke="#ffffff" stroke-opacity="0.12" stroke-width="10" stroke-linecap="round"/>
</svg>
