<svg xmlns="http://www.w3.org/2000/svg" viewBox="0 0 256 256">
  <defs>
    <radialGradient id="bg" cx="50%" cy="40%" r="75%">
      <stop offset="0%" stop-color="#2a0d3a" />
      <stop offset="100%" stop-color="#120017" />
    </radialGradient>
    <linearGradient id="fireOuter" x1="0" y1="0" x2="0" y2="1">
      <stop offset="0%" stop-color="#ffe082" />
      <stop offset="45%" stop-color="#ff9800" />
      <stop offset="100%" stop-color="#ff3d00" />
    </linearGradient>
    <linearGradient id="fireInner" x1="0" y1="0" x2="1" y2="1">
      <stop offset="0%" stop-color="#fff3b0" />
      <stop offset="100%" stop-color="#ffb300" />
    </linearGradient>
    <filter id="glow" x="-40%" y="-40%" width="180%" height="180%">
      <feGaussianBlur stdDeviation="6" result="blur"/>
      <feMerge>
        <feMergeNode in="blur"/>
        <feMergeNode in="SourceGraphic"/>
      </feMerge>
    </filter>
    <clipPath id="wheelClip">
      <circle cx="128" cy="136" r="64" />
    </clipPath>
  </defs>
  <rect x="8" y="8" width="240" height="240" rx="52" fill="url(#bg)" />
  <circle cx="128" cy="136" r="84" fill="none" stroke="#ff5a1f" stroke-width="10" opacity="0.18" filter="url(#glow)" />
  <g filter="url(#glow)">
    <path fill="url(#fireOuter)" d="
      M128 38
      C118 52,118 62,126 72
      C110 62,98 66,92 82
      C82 70,70 72,66 90
      C58 82,48 88,48 104
      C42 96,32 100,34 116
      C34 142,50 160,68 172
      C85 183,104 190,128 190
      C152 190,171 183,188 172
      C206 160,222 142,222 116
      C224 100,214 96,208 104
      C208 88,198 82,190 90
      C186 72,174 70,164 82
      C158 66,146 62,130 72
      C138 62,138 52,128 38
      Z"/>
  </g>
  <circle cx="128" cy="136" r="70" fill="#2b0f36" stroke="#ff7a18" stroke-width="10"/>
  <circle cx="128" cy="136" r="64" fill="#1a0823" />
  <g clip-path="url(#wheelClip)">
    <path d="M128 136 L128 72 A64 64 0 0 1 173.25 90.75 Z" fill="#ff5252"/>
    <path d="M128 136 L173.25 90.75 A64 64 0 0 1 192 136 Z" fill="#ff9800"/>
    <path d="M128 136 L192 136 A64 64 0 0 1 173.25 181.25 Z" fill="#ffeb3b"/>
    <path d="M128 136 L173.25 181.25 A64 64 0 0 1 128 200 Z" fill="#8bc34a"/>
    <path d="M128 136 L128 200 A64 64 0 0 1 82.75 181.25 Z" fill="#00bcd4"/>
    <path d="M128 136 L82.75 181.25 A64 64 0 0 1 64 136 Z" fill="#3f51b5"/>
    <path d="M128 136 L64 136 A64 64 0 0 1 82.75 90.75 Z" fill="#9c27b0"/>
    <path d="M128 136 L82.75 90.75 A64 64 0 0 1 128 72 Z" fill="#e91e63"/>
  </g>
  <g stroke="#2a0d3a" stroke-width="3" opacity="0.6">
    <line x1="128" y1="136" x2="128" y2="72"/>
    <line x1="128" y1="136" x2="173.25" y2="90.75"/>
    <line x1="128" y1="136" x2="192" y2="136"/>
    <line x1="128" y1="136" x2="173.25" y2="181.25"/>
    <line x1="128" y1="136" x2="128" y2="200"/>
    <line x1="128" y1="136" x2="82.75" y2="181.25"/>
    <line x1="128" y1="136" x2="64" y2="136"/>
    <line x1="128" y1="136" x2="82.75" y2="90.75"/>
  </g>
  <circle cx="128" cy="136" r="16" fill="#ffd54f" stroke="#ff8f00" stroke-width="6"/>
  <g filter="url(#glow)">
    <path d="M128 28 L146 58 H110 Z" fill="#ff3d00" stroke="#ffd180" stroke-width="4" />
  </g>
  <g opacity="0.12" stroke="#cfd8dc" stroke-width="6">
    <line x1="84" y1="56" x2="84" y2="216" />
    <line x1="128" y1="48" x2="128" y2="224" />
    <line x1="172" y1="56" x2="172" y2="216" />
  </g>
</svg>